<svg width="18" height="18" viewBox="0 0 18 18" fill="none" xmlns="http://www.w3.org/2000/svg">
<path fill-rule="evenodd" clip-rule="evenodd" d="M6.24219 3.52356C4.89599 3.52356 3.80469 4.61487 3.80469 5.96106V11.9611C3.80469 13.3073 4.89599 14.3986 6.24219 14.3986H12.2422C13.5884 14.3986 14.6797 13.3073 14.6797 11.9611V5.96106C14.6797 4.61487 13.5884 3.52356 12.2422 3.52356H6.24219ZM2.67969 5.96106C2.67969 3.99355 4.27467 2.39856 6.24219 2.39856H12.2422C14.2097 2.39856 15.8047 3.99355 15.8047 5.96106V11.9611C15.8047 13.9286 14.2097 15.5236 12.2422 15.5236H6.24219C4.27467 15.5236 2.67969 13.9286 2.67969 11.9611V5.96106ZM9.24219 7.27356C8.31021 7.27356 7.55469 8.02908 7.55469 8.96106C7.55469 9.89304 8.31021 10.6486 9.24219 10.6486C10.1742 10.6486 10.9297 9.89304 10.9297 8.96106C10.9297 8.02908 10.1742 7.27356 9.24219 7.27356ZM6.42969 8.96106C6.42969 7.40776 7.68889 6.14856 9.24219 6.14856C10.7955 6.14856 12.0547 7.40776 12.0547 8.96106C12.0547 10.5144 10.7955 11.7736 9.24219 11.7736C7.68889 11.7736 6.42969 10.5144 6.42969 8.96106ZM13.1797 5.58606C13.1797 5.2754 12.9278 5.02356 12.6172 5.02356C12.3065 5.02356 12.0547 5.2754 12.0547 5.58606V5.58706C12.0547 5.89772 12.3065 6.14956 12.6172 6.14956C12.9278 6.14956 13.1797 5.89772 13.1797 5.58706V5.58606Z" fill="#282828"/>
</svg>
