<svg width="18" height="18" viewBox="0 0 18 18" fill="none" xmlns="http://www.w3.org/2000/svg">
<path d="M16.2275 2.92951C15.4775 3.29701 14.7425 3.44626 13.9775 3.67201C13.1368 2.72326 11.8903 2.67076 10.6925 3.11926C9.49479 3.56776 8.71029 4.66426 8.72754 5.92201V6.67201C6.29379 6.73426 4.12629 5.62576 2.72754 3.67201C2.72754 3.67201 -0.408961 9.24676 5.72754 11.922C4.32354 12.8573 2.92329 13.488 1.22754 13.422C3.70854 14.7743 6.41229 15.2393 8.75304 14.5598C11.438 13.7798 13.6445 11.7675 14.4913 8.75326C14.7439 7.83651 14.8693 6.8894 14.864 5.93851C14.8625 5.75176 15.9965 3.85951 16.2275 2.92876V2.92951Z" stroke="#282828" stroke-width="1.125" stroke-linecap="round" stroke-linejoin="round"/>
</svg>
