<svg width="20" height="20" viewBox="0 0 20 20" fill="none" xmlns="http://www.w3.org/2000/svg">
<path d="M9.99998 0.0544434C4.50716 0.0544434 0.0544739 4.50713 0.0544739 9.99995C0.0544739 15.4928 4.50716 19.9455 9.99998 19.9455C15.4928 19.9455 19.9455 15.4928 19.9455 9.99995C19.9455 4.50713 15.4928 0.0544434 9.99998 0.0544434ZM7.5654 14.1222H5.55144V7.641H7.5654V14.1222ZM6.54599 6.84536C5.90989 6.84536 5.4986 6.3947 5.4986 5.83734C5.4986 5.26858 5.92232 4.83139 6.57189 4.83139C7.22145 4.83139 7.61927 5.26858 7.63171 5.83734C7.63171 6.3947 7.22145 6.84536 6.54599 6.84536ZM14.9209 14.1222H12.907V10.5304C12.907 9.69433 12.6148 9.12661 11.8865 9.12661C11.3302 9.12661 10.9997 9.51096 10.8536 9.88081C10.7998 10.0124 10.7863 10.1989 10.7863 10.3843V14.1211H8.7713V9.7078C8.7713 8.89869 8.7454 8.22219 8.71846 7.63996H10.4682L10.5605 8.54024H10.6009C10.8661 8.11756 11.5156 7.49389 12.6024 7.49389C13.9274 7.49389 14.9209 8.38173 14.9209 10.29V14.1222Z" fill="#1E1E1E"/>
</svg>
